<?xml version="1.0" encoding="UTF-8"?>
<svg xmlns="http://www.w3.org/2000/svg" xmlns:xlink="http://www.w3.org/1999/xlink" width="65px" height="65px" viewBox="0 0 65 65" version="1.1">
<g id="surface1">
<path style=" stroke:none;fill-rule:nonzero;fill:rgb(36.862746%,36.862746%,36.862746%);fill-opacity:1;" d="M 10.761719 40.367188 L 2.101562 43.863281 C 2.101562 43.863281 5.460938 54.625 15.082031 60.386719 C 22.289062 64.699219 34.296875 67.160156 46.257812 62.390625 C 57.9375 57.734375 63.210938 47.855469 64.476562 39.601562 C 67.039062 22.820312 59.367188 14.054688 59.367188 14.054688 L 53.917969 28.660156 L 46.257812 53.195312 L 28.324219 58.488281 L 10.765625 40.367188 Z M 10.761719 40.367188 "/>
<path style=" stroke:none;fill-rule:nonzero;fill:rgb(27.450982%,27.450982%,27.450982%);fill-opacity:1;" d="M 32.433594 63.226562 C 25.972656 63.226562 18.0625 61.351562 11.699219 56.257812 C 4.714844 50.675781 0.355469 43.585938 0.0234375 33.957031 C -0.324219 23.902344 3.082031 15.199219 10.675781 8.214844 C 15.054688 4.1875 23.421875 -0.460938 33.558594 0.0351562 C 41.726562 0.441406 49.996094 2.058594 58.40625 12.675781 C 68.15625 24.980469 63.449219 44.921875 57.007812 52.539062 C 51.875 58.605469 43.09375 63.226562 32.441406 63.226562 Z M 33.214844 13.28125 C 27.988281 13.28125 23.136719 15.578125 20.539062 17.964844 C 16.0625 22.078125 13.714844 27.601562 13.914062 33.511719 C 14.113281 39.164062 16.65625 44.480469 20.714844 47.726562 C 30.921875 55.890625 42.898438 50.0625 47.042969 45.132812 C 50.8125 40.648438 54.542969 28.5625 46.589844 19.621094 C 43.078125 15.671875 38.871094 13.546875 34.09375 13.308594 C 33.800781 13.292969 33.503906 13.289062 33.214844 13.289062 Z M 33.214844 13.28125 "/>
<path style=" stroke:none;fill-rule:nonzero;fill:rgb(18.431373%,18.431373%,18.431373%);fill-opacity:1;" d="M 12.71875 37.484375 L 27.703125 49.125 L 40.542969 48.359375 L 49.40625 38.984375 L 51.664062 25.023438 C 51.664062 25.023438 55.464844 32.3125 53.152344 40.351562 C 51.652344 45.546875 47.183594 51.9375 39.074219 54.402344 C 31.066406 56.835938 23.4375 54.941406 18.058594 49.582031 C 13.125 44.664062 12.71875 37.484375 12.71875 37.484375 Z M 12.71875 37.484375 "/>
<path style=" stroke:none;fill-rule:nonzero;fill:rgb(40.392157%,42.352942%,43.921569%);fill-opacity:1;" d="M 32.167969 52.996094 C 28.167969 52.996094 23.945312 51.757812 20 48.601562 C 15.675781 45.144531 12.96875 39.515625 12.761719 33.550781 C 12.542969 27.324219 15.015625 21.515625 19.71875 17.191406 C 22.429688 14.699219 27.839844 11.902344 34.121094 12.210938 C 39.175781 12.464844 43.792969 14.78125 47.464844 18.910156 C 55.863281 28.351562 51.914062 41.117188 47.933594 45.855469 C 44.765625 49.621094 38.761719 53.007812 32.167969 53.007812 Z M 33.082031 17.371094 C 28.957031 17.371094 25.128906 19.179688 23.078125 21.066406 C 19.550781 24.3125 17.691406 28.667969 17.855469 33.332031 C 18.007812 37.789062 20.011719 41.984375 23.222656 44.542969 C 31.273438 50.980469 40.722656 46.386719 44 42.496094 C 46.972656 38.957031 49.914062 29.421875 43.640625 22.367188 C 40.867188 19.25 37.546875 17.574219 33.777344 17.386719 C 33.542969 17.375 33.316406 17.371094 33.085938 17.371094 Z M 33.082031 17.371094 "/>
<path style=" stroke:none;fill-rule:nonzero;fill:rgb(52.156866%,52.156866%,52.156866%);fill-opacity:1;" d="M 15.320312 40.078125 L 27.089844 36.742188 L 26.210938 33.984375 L 13.664062 36.210938 Z M 34.628906 39.636719 L 34.480469 51.785156 L 31.125 51.589844 L 32.09375 39.640625 Z M 37.789062 37.902344 L 47.074219 45.402344 L 48.585938 43.417969 L 38.417969 35.386719 Z M 37.519531 29.386719 L 39.464844 30.691406 L 49.335938 24.457031 L 47.199219 20.679688 Z M 24.996094 15.355469 L 20.332031 17.917969 L 27.089844 27.257812 L 30.394531 25.078125 Z M 24.996094 15.355469 "/>
<path style=" stroke:none;fill-rule:nonzero;fill:rgb(69.01961%,69.01961%,69.01961%);fill-opacity:1;" d="M 22.273438 15.785156 L 29.089844 26.21875 L 32.734375 24.683594 L 30.296875 12.980469 Z M 13.617188 30.878906 L 14.445312 38.183594 L 25.4375 35.378906 L 25.339844 31.183594 Z M 28.835938 39.199219 L 25.425781 49.863281 L 25.875 51.148438 L 32.390625 52.113281 L 32.875 40.070312 Z M 38.855469 36.390625 L 48.242188 43.695312 L 51.210938 36.636719 L 39.734375 33.25 Z M 38.855469 28.945312 L 49.167969 22.21875 L 44.0625 16.941406 L 36.386719 26.730469 Z M 38.855469 28.945312 "/>
<path style=" stroke:none;fill-rule:nonzero;fill:rgb(69.01961%,69.01961%,69.01961%);fill-opacity:1;" d="M 32.15625 53.527344 C 28.054688 53.527344 23.722656 52.253906 19.675781 49.015625 C 15.234375 45.46875 12.457031 39.695312 12.246094 33.578125 C 12.019531 27.1875 14.558594 21.226562 19.378906 16.792969 C 22.164062 14.234375 27.714844 11.367188 34.15625 11.683594 C 39.339844 11.941406 44.074219 14.316406 47.84375 18.554688 C 56.457031 28.238281 52.410156 41.335938 48.324219 46.195312 C 45.078125 50.058594 38.921875 53.53125 32.148438 53.53125 Z M 33.195312 13.9375 C 28.140625 13.9375 23.457031 16.160156 20.945312 18.460938 C 16.617188 22.441406 14.339844 27.777344 14.542969 33.492188 C 14.734375 38.953125 17.191406 44.089844 21.113281 47.230469 C 30.980469 55.113281 42.558594 49.484375 46.5625 44.71875 C 50.203125 40.382812 53.816406 28.707031 46.125 20.0625 C 42.730469 16.242188 38.660156 14.191406 34.039062 13.960938 C 33.757812 13.941406 33.472656 13.9375 33.195312 13.9375 Z M 33.195312 13.9375 "/>
<path style=" stroke:none;fill-rule:nonzero;fill:rgb(69.01961%,69.01961%,69.01961%);fill-opacity:1;" d="M 28.847656 25.695312 C 25.144531 27.179688 23.671875 32.847656 25.695312 36.699219 C 27.710938 40.546875 33.320312 41.984375 36.757812 39.617188 C 40.523438 37.03125 41.40625 31.964844 39.417969 28.664062 C 37.503906 25.488281 32.960938 24.042969 28.847656 25.695312 Z M 28.847656 25.695312 "/>
<path style=" stroke:none;fill-rule:nonzero;fill:rgb(27.450982%,29.803923%,30.980393%);fill-opacity:1;" d="M 32.367188 30.289062 C 30.785156 30.359375 29.898438 31.324219 29.929688 32.710938 C 29.964844 34 31.039062 35.003906 32.394531 35.003906 C 33.75 35.003906 34.730469 34.027344 34.761719 32.679688 C 34.796875 31.328125 33.78125 30.230469 32.367188 30.289062 Z M 32.367188 30.289062 "/>
<path style=" stroke:none;fill-rule:nonzero;fill:rgb(36.862746%,38.82353%,40.392157%);fill-opacity:1;" d="M 33.582031 26.894531 C 32.75 26.894531 32.078125 27.558594 32.109375 28.355469 C 32.144531 29.152344 32.902344 29.789062 33.566406 29.789062 C 34.230469 29.789062 35.054688 29.191406 35.054688 28.425781 C 35.054688 27.664062 34.488281 26.898438 33.582031 26.898438 Z M 36.976562 30.980469 C 36.0625 30.980469 35.554688 31.832031 35.585938 32.460938 C 35.621094 33.089844 36.152344 33.875 37.042969 33.839844 C 37.929688 33.808594 38.429688 33.054688 38.464844 32.363281 C 38.496094 31.667969 37.796875 30.980469 36.976562 30.980469 Z M 34.921875 35.695312 C 33.972656 35.664062 33.429688 36.386719 33.40625 37.140625 C 33.375 38.117188 34.289062 38.621094 34.953125 38.621094 C 35.621094 38.621094 36.375 38.148438 36.375 37.300781 C 36.375 36.449219 35.902344 35.726562 34.921875 35.695312 Z M 29.078125 34.6875 C 28.195312 34.71875 27.71875 35.441406 27.746094 36.195312 C 27.773438 36.855469 28.285156 37.609375 29.167969 37.609375 C 30.050781 37.609375 30.589844 36.914062 30.589844 36.101562 C 30.589844 35.289062 29.925781 34.652344 29.078125 34.6875 Z M 28.417969 28.90625 C 27.46875 28.9375 26.992188 29.65625 26.964844 30.382812 C 26.929688 31.261719 27.6875 31.921875 28.476562 31.921875 C 29.269531 31.921875 29.933594 31.292969 29.933594 30.476562 C 29.933594 29.65625 29.492188 28.867188 28.417969 28.90625 Z M 28.417969 28.90625 "/>
<path style=" stroke:none;fill-rule:nonzero;fill:rgb(87.843138%,87.843138%,87.843138%);fill-opacity:1;" d="M 25.503906 36.550781 C 25.464844 36.484375 22.070312 30.226562 27.917969 26.058594 C 33.972656 21.738281 38.511719 27.300781 38.5625 27.359375 C 38.746094 27.585938 38.90625 28.003906 38.675781 28.1875 C 38.445312 28.371094 38.113281 28.339844 37.925781 28.113281 C 37.761719 27.910156 33.773438 23.183594 28.539062 26.917969 C 23.457031 30.546875 26.375 36.234375 26.503906 36.480469 C 26.640625 36.738281 26.566406 37.125 26.28125 37.195312 C 25.832031 37.304688 25.601562 36.734375 25.503906 36.550781 Z M 25.503906 36.550781 "/>
<path style=" stroke:none;fill-rule:nonzero;fill:rgb(87.843138%,87.843138%,87.843138%);fill-opacity:1;" d="M 28.804688 26.300781 C 28.628906 26.300781 28.453125 26.214844 28.351562 26.054688 L 22.453125 16.820312 C 22.414062 16.761719 22.386719 16.699219 22.375 16.628906 C 22.363281 16.558594 22.363281 16.488281 22.378906 16.421875 C 22.394531 16.355469 22.425781 16.289062 22.464844 16.234375 C 22.503906 16.175781 22.554688 16.128906 22.613281 16.089844 C 22.675781 16.050781 22.738281 16.027344 22.808594 16.015625 C 22.878906 16.003906 22.949219 16.003906 23.015625 16.019531 C 23.085938 16.035156 23.148438 16.0625 23.207031 16.101562 C 23.265625 16.144531 23.3125 16.195312 23.351562 16.253906 L 29.25 25.488281 C 29.300781 25.566406 29.332031 25.660156 29.335938 25.753906 C 29.339844 25.847656 29.316406 25.941406 29.269531 26.027344 C 29.222656 26.109375 29.15625 26.179688 29.074219 26.226562 C 28.992188 26.273438 28.898438 26.300781 28.804688 26.300781 Z M 36.714844 26.84375 C 36.597656 26.84375 36.484375 26.804688 36.386719 26.726562 C 36.332031 26.6875 36.285156 26.632812 36.25 26.570312 C 36.214844 26.511719 36.195312 26.445312 36.183594 26.375 C 36.175781 26.308594 36.183594 26.238281 36.199219 26.171875 C 36.21875 26.101562 36.25 26.039062 36.292969 25.984375 L 43.3125 17.039062 C 43.492188 16.804688 43.828125 16.765625 44.058594 16.945312 C 44.292969 17.125 44.328125 17.460938 44.148438 17.6875 L 37.132812 26.636719 C 37.03125 26.773438 36.871094 26.84375 36.714844 26.84375 Z M 24.804688 31.707031 L 14.835938 31.601562 C 14.542969 31.601562 14.308594 31.355469 14.308594 31.0625 C 14.308594 30.769531 14.546875 30.539062 14.839844 30.539062 L 14.847656 30.539062 L 24.8125 30.644531 C 25.105469 30.644531 25.339844 30.890625 25.339844 31.183594 C 25.339844 31.476562 25.097656 31.707031 24.804688 31.707031 Z M 25.601562 49.890625 C 25.539062 49.890625 25.484375 49.878906 25.425781 49.863281 C 25.292969 49.816406 25.183594 49.722656 25.121094 49.59375 C 25.058594 49.46875 25.050781 49.324219 25.09375 49.191406 L 28.394531 39.492188 C 28.742188 39.714844 29.390625 39.980469 29.398438 39.960938 L 26.105469 49.53125 C 26.03125 49.753906 25.824219 49.890625 25.601562 49.890625 Z M 25.601562 49.890625 "/>
<path style=" stroke:none;fill-rule:nonzero;fill:rgb(100%,100%,100%);fill-opacity:1;" d="M 43.335938 48.816406 C 43.222656 48.816406 43.113281 48.78125 43.019531 48.710938 C 42.929688 48.644531 42.863281 48.550781 42.828125 48.445312 C 42.792969 48.335938 42.796875 48.222656 42.832031 48.113281 C 42.867188 48.007812 42.9375 47.914062 43.03125 47.851562 C 43.058594 47.835938 45.570312 46.15625 47.160156 43.949219 C 48.695312 41.8125 49.863281 38.847656 49.875 38.820312 C 49.984375 38.550781 50.292969 38.421875 50.566406 38.523438 C 50.839844 38.632812 50.972656 38.941406 50.863281 39.210938 C 50.816406 39.332031 49.699219 42.28125 47.996094 44.605469 C 46.292969 46.925781 43.75 48.640625 43.640625 48.71875 C 43.550781 48.78125 43.445312 48.8125 43.335938 48.816406 Z M 13.636719 38.457031 C 13.417969 38.457031 13.214844 38.328125 13.136719 38.117188 C 13.089844 38.007812 9.042969 26.925781 18.164062 17.792969 C 27.484375 8.460938 38.375 12.574219 38.484375 12.621094 C 38.613281 12.671875 38.71875 12.773438 38.777344 12.902344 C 38.832031 13.03125 38.835938 13.175781 38.78125 13.308594 C 38.730469 13.4375 38.628906 13.542969 38.5 13.597656 C 38.367188 13.65625 38.222656 13.65625 38.089844 13.605469 C 38.0625 13.59375 35.46875 12.609375 31.824219 12.722656 C 26.957031 12.878906 22.613281 14.839844 18.914062 18.539062 C 10.273438 27.1875 14.089844 37.628906 14.125 37.738281 C 14.175781 37.871094 14.171875 38.015625 14.113281 38.144531 C 14.054688 38.269531 13.949219 38.371094 13.816406 38.421875 C 13.757812 38.441406 13.691406 38.453125 13.636719 38.457031 Z M 13.636719 38.457031 "/>
<path style=" stroke:none;fill-rule:nonzero;fill:rgb(43.921569%,43.921569%,43.921569%);fill-opacity:1;" d="M 20.167969 11.003906 C 8.933594 17.273438 5.441406 30.308594 9.347656 41.625 C 10.316406 44.433594 10.535156 46.484375 8.648438 47.457031 C 6.765625 48.425781 4.792969 45.839844 4.253906 44.539062 C -0.769531 32.390625 2.152344 14.050781 18.699219 5.308594 C 34.613281 -3.089844 52.695312 5.574219 57.601562 16.863281 C 58.957031 19.972656 57.769531 21.378906 56.953125 21.769531 C 54.359375 22.996094 53.332031 19.917969 52.617188 18.847656 C 44.28125 6.296875 30.734375 5.113281 20.167969 11.003906 Z M 57.128906 24.121094 C 55.058594 24.722656 54.433594 27.203125 55.234375 29.375 C 56.035156 31.554688 57.75 31.84375 59.171875 31.332031 C 60.59375 30.824219 61.246094 29.445312 60.917969 27.160156 C 60.59375 24.875 58.878906 23.605469 57.128906 24.121094 Z M 57.128906 24.121094 "/>
</g>
</svg>
