<?xml version="1.0" encoding="UTF-8"?>
<svg xmlns="http://www.w3.org/2000/svg" xmlns:xlink="http://www.w3.org/1999/xlink" width="65px" height="65px" viewBox="0 0 65 65" version="1.1">
<g id="surface1">
<path style="fill:none;stroke-width:6;stroke-linecap:round;stroke-linejoin:miter;stroke:rgb(0%,0%,0%);stroke-opacity:1;stroke-miterlimit:10;" d="M 12.603125 39.39375 L 21.725 30.271875 M 30.903125 44.3 L 27.565625 31.8375 M 44.303125 30.9 L 31.840625 27.5625 M 39.396875 12.6 L 30.275 21.721875 M 21.096875 7.69375 L 24.434375 20.15625 M 7.696875 21.09375 L 20.15625 24.43125 " transform="matrix(1.25,0,0,1.25,0,0)"/>
<path style=" stroke:none;fill-rule:nonzero;fill:rgb(24.705882%,24.705882%,24.705882%);fill-opacity:1;" d="M 32.5 1.25 C 15.242188 1.25 1.25 15.242188 1.25 32.5 C 1.25 49.757812 15.242188 63.75 32.5 63.75 C 49.757812 63.75 63.75 49.757812 63.75 32.5 C 63.75 15.242188 49.757812 1.25 32.5 1.25 Z M 32.5 55.902344 C 19.574219 55.902344 9.097656 45.425781 9.097656 32.5 C 9.097656 19.574219 19.578125 9.097656 32.5 9.097656 C 45.421875 9.097656 55.902344 19.578125 55.902344 32.5 C 55.902344 45.421875 45.421875 55.902344 32.5 55.902344 Z M 32.5 55.902344 "/>
<path style=" stroke:none;fill-rule:nonzero;fill:rgb(24.705882%,24.705882%,24.705882%);fill-opacity:1;" d="M 32.5 24.941406 C 30.496094 24.941406 28.570312 25.738281 27.152344 27.15625 C 25.738281 28.574219 24.941406 30.496094 24.941406 32.5 C 24.941406 34.503906 25.738281 36.429688 27.152344 37.847656 C 28.570312 39.261719 30.496094 40.058594 32.5 40.058594 C 34.503906 40.058594 36.425781 39.261719 37.84375 37.847656 C 39.261719 36.429688 40.058594 34.503906 40.058594 32.5 C 40.058594 30.496094 39.261719 28.574219 37.84375 27.15625 C 36.425781 25.738281 34.503906 24.941406 32.5 24.941406 Z M 32.5 35.859375 C 31.609375 35.859375 30.753906 35.503906 30.125 34.875 C 29.496094 34.246094 29.144531 33.390625 29.144531 32.5 C 29.144531 31.609375 29.496094 30.757812 30.125 30.128906 C 30.753906 29.496094 31.609375 29.144531 32.5 29.144531 C 33.390625 29.144531 34.242188 29.496094 34.875 30.128906 C 35.503906 30.757812 35.855469 31.609375 35.855469 32.5 C 35.855469 33.390625 35.503906 34.246094 34.875 34.875 C 34.242188 35.503906 33.390625 35.859375 32.5 35.859375 Z M 32.5 35.859375 "/>
<path style="fill:none;stroke-width:0.666667;stroke-linecap:butt;stroke-linejoin:miter;stroke:rgb(0%,0%,0%);stroke-opacity:1;stroke-miterlimit:10;" d="M 26 51 C 39.80625 51 51 39.80625 51 26 C 51 12.19375 39.80625 1 26 1 C 12.19375 1 1 12.19375 1 26 C 1 39.80625 12.19375 51 26 51 Z M 26 51 " transform="matrix(1.25,0,0,1.25,0,0)"/>
<path style="fill:none;stroke-width:0.666667;stroke-linecap:butt;stroke-linejoin:miter;stroke:rgb(0%,0%,0%);stroke-opacity:1;stroke-miterlimit:10;" d="M 26 45.065625 C 36.528125 45.065625 45.065625 36.53125 45.065625 26.003125 C 45.065625 15.471875 36.528125 6.9375 26 6.9375 C 15.471875 6.9375 6.934375 15.471875 6.934375 26.003125 C 6.934375 36.53125 15.471875 45.065625 26 45.065625 Z M 26 45.065625 " transform="matrix(1.25,0,0,1.25,0,0)"/>
<path style="fill:none;stroke-width:0.666667;stroke-linecap:butt;stroke-linejoin:miter;stroke:rgb(0%,0%,0%);stroke-opacity:1;stroke-miterlimit:10;" d="M 26 32.046875 C 29.340625 32.046875 32.046875 29.340625 32.046875 26 C 32.046875 22.659375 29.340625 19.953125 26 19.953125 C 22.659375 19.953125 19.953125 22.659375 19.953125 26 C 19.953125 29.340625 22.659375 32.046875 26 32.046875 Z M 26 32.046875 " transform="matrix(1.25,0,0,1.25,0,0)"/>
<path style="fill:none;stroke-width:0.666667;stroke-linecap:butt;stroke-linejoin:miter;stroke:rgb(0%,0%,0%);stroke-opacity:1;stroke-miterlimit:10;" d="M 26 28.690625 C 27.484375 28.690625 28.6875 27.4875 28.6875 26.00625 C 28.6875 24.521875 27.484375 23.31875 26 23.31875 C 24.51875 23.31875 23.315625 24.521875 23.315625 26.00625 C 23.315625 27.4875 24.51875 28.690625 26 28.690625 Z M 26 28.690625 " transform="matrix(1.25,0,0,1.25,0,0)"/>
</g>
</svg>
