<?xml version="1.0" encoding="UTF-8"?>
<svg xmlns="http://www.w3.org/2000/svg" xmlns:xlink="http://www.w3.org/1999/xlink" width="65px" height="65px" viewBox="0 0 65 65" version="1.1">
<g id="surface1">
<path style=" stroke:none;fill-rule:nonzero;fill:rgb(34.901962%,48.235294%,56.862748%);fill-opacity:1;" d="M 33.871094 57.941406 L 31.128906 57.941406 L 31.128906 7.070312 L 33.871094 7.070312 Z M 51.457031 15.488281 L 49.519531 13.550781 L 13.546875 49.519531 L 15.484375 51.460938 Z M 51.457031 15.488281 "/>
<path style=" stroke:none;fill-rule:nonzero;fill:rgb(34.901962%,48.235294%,56.862748%);fill-opacity:1;" d="M 57.9375 33.863281 L 7.066406 33.863281 L 7.066406 31.121094 L 57.9375 31.121094 Z M 51.457031 49.511719 L 15.484375 13.539062 L 13.546875 15.476562 L 49.515625 51.449219 Z M 51.457031 49.511719 "/>
<path style="fill-rule:nonzero;fill:rgb(16.862746%,23.137255%,27.843139%);fill-opacity:1;stroke-width:2;stroke-linecap:butt;stroke-linejoin:miter;stroke:rgb(0%,0%,0%);stroke-opacity:1;stroke-miterlimit:4;" d="M 25 1.000601 C 38.233173 1.000601 48.999399 11.766827 48.999399 25 C 48.999399 38.233173 38.233173 48.999399 25 48.999399 C 11.766827 48.999399 1.000601 38.233173 1.000601 25 C 1.000601 11.766827 11.766827 1.000601 25 1.000601 Z M 25 11.054687 C 17.298678 11.054687 11.054687 17.298678 11.054687 25 C 11.054687 32.701322 17.298678 38.945312 25 38.945312 C 32.701322 38.945312 38.945312 32.701322 38.945312 25 C 38.945312 17.298678 32.701322 11.054687 25 11.054687 Z M 25 11.054687 " transform="matrix(1.3,0,0,1.3,0,0)"/>
<path style=" stroke:none;fill-rule:nonzero;fill:rgb(100%,27.843139%,24.313726%);fill-opacity:1;" d="M 37.746094 31.726562 C 37.746094 34.609375 35.40625 36.949219 32.523438 36.949219 C 29.640625 36.949219 27.304688 34.609375 27.304688 31.726562 C 27.304688 28.84375 29.640625 26.507812 32.523438 26.507812 C 35.40625 26.507812 37.746094 28.84375 37.746094 31.726562 Z M 37.746094 31.726562 "/>
</g>
</svg>
