<?xml version="1.0" encoding="UTF-8"?>
<svg xmlns="http://www.w3.org/2000/svg" xmlns:xlink="http://www.w3.org/1999/xlink" width="65px" height="65px" viewBox="0 0 65 65" version="1.1">
<g id="surface1">
<path style="fill-rule:nonzero;fill:rgb(16.862746%,23.137255%,27.843139%);fill-opacity:1;stroke-width:2;stroke-linecap:butt;stroke-linejoin:miter;stroke:rgb(0%,0%,0%);stroke-opacity:1;stroke-miterlimit:4;" d="M 25 1.000601 C 38.254207 1.000601 48.999399 11.745793 48.999399 25 C 48.999399 38.254207 38.254207 48.999399 25 48.999399 C 11.745793 48.999399 1.000601 38.254207 1.000601 25 C 1.000601 11.745793 11.745793 1.000601 25 1.000601 Z M 26.739784 31.268029 C 25.600962 31.583534 24.399038 31.583534 23.260216 31.268029 L 22.515024 31.060697 L 22.127404 31.730769 L 18.314303 38.329327 L 17.746394 39.311899 L 18.792067 39.750601 C 20.757212 40.576923 22.869591 41.000601 25 40.997596 C 27.199519 40.997596 29.296875 40.555889 31.207933 39.750601 L 32.253606 39.311899 L 31.685697 38.329327 L 27.872596 31.730769 L 27.484976 31.060697 Z M 9.122596 27.001202 C 9.371995 28.98137 9.99399 30.898437 10.946514 32.65024 L 11.141827 32.998798 C 12.208534 34.84375 13.632812 36.460337 15.330529 37.749399 L 16.234976 38.434495 L 16.79988 37.451923 L 20.609976 30.853365 L 20.997596 30.180288 L 20.444712 29.639423 C 19.600361 28.810096 18.999399 27.770433 18.701923 26.625601 L 18.509615 25.874399 L 8.98137 25.874399 Z M 31.295072 26.625601 C 30.997596 27.767428 30.396635 28.810096 29.555288 29.636418 L 29.002404 30.177284 L 29.390024 30.850361 L 33.20012 37.448918 L 33.765024 38.43149 L 34.669471 37.746394 C 36.262019 36.541466 37.611178 35.045072 38.653846 33.344351 L 38.858173 32.998798 C 39.92488 31.153846 40.609976 29.113582 40.877404 27.001202 L 41.01863 25.874399 L 31.48738 25.874399 Z M 15.330529 12.253606 C 13.632812 13.539663 12.208534 15.153245 11.141827 17.001202 C 10.07512 18.846154 9.390024 20.886418 9.122596 22.998798 L 8.98137 24.125601 L 18.51262 24.125601 L 18.704928 23.374399 C 19.005409 22.217548 19.615385 21.180889 20.447716 20.363582 L 20.997596 19.819712 L 20.609976 19.149639 L 16.79988 12.551082 L 16.234976 11.56851 Z M 33.20012 12.548077 L 29.390024 19.146635 L 29.002404 19.819712 L 29.555288 20.360577 C 30.396635 21.189904 30.997596 22.229567 31.295072 23.374399 L 31.48738 24.122596 L 41.01863 24.122596 L 40.877404 22.995793 C 40.609976 20.883413 39.92488 18.843149 38.858173 16.998197 C 37.791466 15.153245 36.367188 13.539663 34.669471 12.250601 L 33.765024 11.565505 Z M 25 8.999399 C 22.800481 8.999399 20.703125 9.444111 18.792067 10.249399 L 17.746394 10.688101 L 18.314303 11.670673 L 22.127404 18.269231 L 22.515024 18.939303 L 23.260216 18.731971 C 24.399038 18.416466 25.600962 18.416466 26.739784 18.731971 L 27.484976 18.939303 L 27.872596 18.269231 L 31.685697 11.667668 L 32.253606 10.685096 L 31.207933 10.246394 C 29.242788 9.420072 27.130409 8.996394 25 8.999399 Z M 25 8.999399 " transform="matrix(1.3,0,0,1.3,0,0)"/>
<path style=" stroke:none;fill-rule:nonzero;fill:rgb(100%,27.843139%,24.313726%);fill-opacity:1;" d="M 39.046875 32.78125 C 39.046875 36.242188 36.246094 39.046875 32.785156 39.046875 C 29.324219 39.046875 26.519531 36.242188 26.519531 32.78125 C 26.519531 29.324219 29.324219 26.519531 32.785156 26.519531 C 36.246094 26.519531 39.046875 29.324219 39.046875 32.78125 Z M 39.046875 32.78125 "/>
</g>
</svg>
