<?xml version="1.0" encoding="UTF-8"?>
<svg xmlns="http://www.w3.org/2000/svg" xmlns:xlink="http://www.w3.org/1999/xlink" width="65px" height="65px" viewBox="0 0 65 65" version="1.1">
<g id="surface1">
<path style=" stroke:none;fill-rule:nonzero;fill:rgb(0%,0%,0%);fill-opacity:1;" d="M 32.5 0 C 23.878906 0 15.613281 3.425781 9.519531 9.519531 C 3.425781 15.613281 0 23.878906 0 32.5 C 0 41.121094 3.425781 49.386719 9.519531 55.480469 C 15.613281 61.574219 23.878906 65 32.5 65 C 36.769531 65 40.992188 64.160156 44.9375 62.527344 C 48.878906 60.894531 52.464844 58.5 55.480469 55.480469 C 58.5 52.464844 60.894531 48.878906 62.527344 44.9375 C 64.160156 40.992188 65 36.769531 65 32.5 C 65 28.230469 64.160156 24.007812 62.527344 20.0625 C 60.894531 16.121094 58.5 12.535156 55.480469 9.519531 C 52.464844 6.5 48.878906 4.105469 44.9375 2.472656 C 40.992188 0.839844 36.769531 0 32.5 0 Z M 32.5 11.339844 C 44.171875 11.339844 53.660156 20.828125 53.660156 32.5 C 53.660156 44.171875 44.171875 53.660156 32.5 53.660156 C 20.828125 53.660156 11.339844 44.171875 11.339844 32.5 C 11.339844 20.828125 20.828125 11.339844 32.5 11.339844 Z M 32.5 13.828125 C 29.675781 13.828125 27 14.453125 24.605469 15.574219 C 26.203125 20.121094 28.933594 25.863281 32.5 25.863281 C 36.070312 25.863281 38.714844 20.101562 40.347656 15.550781 C 37.964844 14.445312 35.304688 13.828125 32.5 13.828125 Z M 46.15625 19.761719 C 42.324219 22.683594 37.703125 27.0625 38.804688 30.453125 C 39.90625 33.851562 46.203125 34.582031 51.039062 34.734375 C 51.125 34 51.171875 33.253906 51.171875 32.5 C 51.171875 27.570312 49.269531 23.09375 46.15625 19.761719 Z M 18.8125 19.792969 C 15.71875 23.125 13.828125 27.585938 13.828125 32.5 C 13.828125 33.265625 13.875 34.023438 13.964844 34.765625 C 18.785156 34.652344 25.082031 33.828125 26.183594 30.4375 C 27.285156 27.042969 22.632812 22.753906 18.8125 19.792969 Z M 28.519531 25.828125 C 28.269531 25.835938 28.023438 25.917969 27.820312 26.066406 C 27.554688 26.261719 27.375 26.550781 27.324219 26.878906 C 27.273438 27.203125 27.351562 27.539062 27.546875 27.804688 C 27.742188 28.070312 28.03125 28.25 28.359375 28.300781 C 28.683594 28.355469 29.019531 28.273438 29.285156 28.082031 C 29.417969 27.984375 29.53125 27.863281 29.613281 27.722656 C 29.699219 27.585938 29.757812 27.429688 29.785156 27.269531 C 29.808594 27.105469 29.800781 26.941406 29.765625 26.78125 C 29.726562 26.625 29.65625 26.472656 29.5625 26.339844 C 29.441406 26.179688 29.285156 26.046875 29.101562 25.957031 C 28.921875 25.867188 28.722656 25.824219 28.519531 25.828125 Z M 36.480469 25.828125 C 36.453125 25.828125 36.421875 25.828125 36.394531 25.828125 C 36.207031 25.835938 36.023438 25.886719 35.859375 25.976562 C 35.691406 26.066406 35.550781 26.191406 35.4375 26.339844 C 35.34375 26.472656 35.273438 26.625 35.234375 26.78125 C 35.199219 26.941406 35.191406 27.105469 35.214844 27.269531 C 35.242188 27.429688 35.300781 27.585938 35.386719 27.722656 C 35.46875 27.863281 35.582031 27.984375 35.714844 28.082031 C 35.980469 28.273438 36.316406 28.355469 36.640625 28.300781 C 36.96875 28.25 37.257812 28.070312 37.453125 27.804688 C 37.648438 27.539062 37.726562 27.203125 37.675781 26.878906 C 37.625 26.554688 37.445312 26.261719 37.179688 26.066406 C 36.976562 25.917969 36.730469 25.835938 36.480469 25.828125 Z M 32.5 28.074219 C 31.328125 28.074219 30.199219 28.539062 29.371094 29.371094 C 28.539062 30.199219 28.074219 31.328125 28.074219 32.5 C 28.074219 33.671875 28.539062 34.800781 29.371094 35.628906 C 30.199219 36.460938 31.328125 36.925781 32.5 36.925781 C 33.671875 36.925781 34.800781 36.460938 35.628906 35.628906 C 36.460938 34.800781 36.925781 33.671875 36.925781 32.5 C 36.925781 31.328125 36.460938 30.199219 35.628906 29.371094 C 34.800781 28.539062 33.671875 28.074219 32.5 28.074219 Z M 26.097656 33.335938 C 25.972656 33.335938 25.847656 33.355469 25.730469 33.394531 C 25.574219 33.445312 25.429688 33.527344 25.308594 33.632812 C 25.183594 33.738281 25.082031 33.867188 25.007812 34.015625 C 24.933594 34.160156 24.886719 34.320312 24.875 34.480469 C 24.859375 34.644531 24.878906 34.808594 24.929688 34.964844 C 25.03125 35.277344 25.253906 35.539062 25.550781 35.6875 C 25.84375 35.839844 26.183594 35.867188 26.5 35.761719 C 26.65625 35.710938 26.800781 35.632812 26.921875 35.527344 C 27.046875 35.421875 27.148438 35.289062 27.222656 35.144531 C 27.296875 35 27.34375 34.839844 27.355469 34.675781 C 27.367188 34.515625 27.347656 34.351562 27.296875 34.195312 C 27.214844 33.941406 27.054688 33.722656 26.839844 33.566406 C 26.625 33.414062 26.363281 33.332031 26.097656 33.335938 Z M 38.9375 33.335938 C 38.667969 33.324219 38.398438 33.402344 38.175781 33.558594 C 37.953125 33.710938 37.785156 33.9375 37.703125 34.195312 C 37.652344 34.351562 37.632812 34.515625 37.644531 34.675781 C 37.65625 34.839844 37.703125 35 37.777344 35.144531 C 37.851562 35.289062 37.953125 35.417969 38.078125 35.527344 C 38.199219 35.632812 38.34375 35.710938 38.5 35.761719 C 38.816406 35.863281 39.15625 35.839844 39.449219 35.6875 C 39.746094 35.539062 39.96875 35.277344 40.070312 34.964844 C 40.121094 34.808594 40.140625 34.644531 40.125 34.480469 C 40.113281 34.320312 40.066406 34.160156 39.992188 34.015625 C 39.917969 33.867188 39.816406 33.738281 39.695312 33.632812 C 39.570312 33.527344 39.425781 33.445312 39.269531 33.394531 C 39.164062 33.359375 39.050781 33.339844 38.9375 33.335938 Z M 26.195312 37.167969 C 23.210938 37.183594 19.246094 39.496094 16.179688 41.585938 C 18.8125 46.308594 23.433594 49.765625 28.921875 50.828125 C 30.304688 46.210938 31.46875 39.953125 28.585938 37.859375 C 27.914062 37.371094 27.101562 37.164062 26.195312 37.167969 Z M 38.78125 37.171875 C 37.875 37.171875 37.054688 37.382812 36.382812 37.867188 C 33.496094 39.96875 34.742188 46.179688 36.09375 50.824219 C 41.585938 49.757812 46.207031 46.292969 48.832031 41.5625 C 45.789062 39.457031 41.789062 37.171875 38.78125 37.171875 Z M 32.5 37.972656 C 32.171875 37.972656 31.851562 38.105469 31.621094 38.339844 C 31.386719 38.570312 31.253906 38.886719 31.253906 39.21875 C 31.253906 39.546875 31.386719 39.863281 31.621094 40.097656 C 31.851562 40.332031 32.171875 40.464844 32.5 40.464844 C 32.828125 40.464844 33.148438 40.332031 33.378906 40.097656 C 33.613281 39.863281 33.746094 39.546875 33.746094 39.21875 C 33.746094 38.886719 33.613281 38.570312 33.378906 38.339844 C 33.148438 38.105469 32.828125 37.972656 32.5 37.972656 Z M 32.5 37.972656 "/>
<path style=" stroke:none;fill-rule:nonzero;fill:rgb(27.450982%,27.450982%,27.450982%);fill-opacity:1;" d="M 64.058594 32.027344 C 64.058594 49.71875 49.71875 64.058594 32.027344 64.058594 C 14.339844 64.058594 0 49.71875 0 32.027344 C 0 14.339844 14.339844 0 32.027344 0 C 49.71875 0 64.058594 14.339844 64.058594 32.027344 Z M 9.480469 32.027344 C 9.480469 44.480469 19.578125 54.574219 32.027344 54.574219 C 44.480469 54.574219 54.574219 44.480469 54.574219 32.027344 C 54.574219 19.578125 44.480469 9.480469 32.027344 9.480469 C 19.578125 9.480469 9.480469 19.578125 9.480469 32.027344 Z M 9.480469 32.027344 "/>
</g>
</svg>
